{
    "asset" : {
        "generator" : "Khronos glTF Blender I/O v1.1.46",
        "version" : "2.0"
    },
    "scene" : 0,
    "scenes" : [
        {
            "name" : "Scene",
            "nodes" : [
                0,
                9
            ]
        }
    ],
    "nodes" : [
        {
            "name" : "back",
            "rotation" : [
                0.4999999403953552,
                0.5000000596046448,
                -0.5000000596046448,
                0.49999991059303284
            ],
            "scale" : [
                0.009999999776482582,
                0.009999999776482582,
                0.009999999776482582
            ],
            "translation" : [
                0,
                0,
                -10.000999450683594
            ]
        },
        {
            "mesh" : 0,
            "name" : "polySurface15",
            "translation" : [
                -0.04683225229382515,
                0.007717855740338564,
                0.20363286137580872
            ]
        },
        {
            "mesh" : 1,
            "name" : "polySurface23",
            "translation" : [
                -0.04683225229382515,
                0.007717855740338564,
                0.20363286137580872
            ]
        },
        {
            "mesh" : 2,
            "name" : "polySurface24",
            "translation" : [
                -0.04683225229382515,
                0.007717855740338564,
                0.20363286137580872
            ]
        },
        {
            "mesh" : 3,
            "name" : "polySurface25",
            "translation" : [
                -0.04683225229382515,
                0.007717855740338564,
                0.20363286137580872
            ]
        },
        {
            "mesh" : 4,
            "name" : "polySurface26",
            "translation" : [
                -0.04683225229382515,
                0.007717855740338564,
                0.20363286137580872
            ]
        },
        {
            "mesh" : 5,
            "name" : "polySurface3",
            "translation" : [
                -0.04683225229382515,
                0.007717855740338564,
                0.20363286137580872
            ]
        },
        {
            "mesh" : 6,
            "name" : "polySurface5",
            "translation" : [
                -0.04683225229382515,
                0.007717855740338564,
                0.20363286137580872
            ]
        },
        {
            "mesh" : 7,
            "name" : "polySurface8",
            "translation" : [
                -0.04683225229382515,
                0.007717855740338564,
                0.20363286137580872
            ]
        },
        {
            "children" : [
                1,
                2,
                3,
                4,
                5,
                6,
                7,
                8
            ],
            "name" : "group2",
            "rotation" : [
                0.7071067690849304,
                0,
                0,
                0.7071067690849304
            ],
            "scale" : [
                0.10000000149011612,
                0.10000000149011612,
                0.10000000149011612
            ],
            "translation" : [
                0.00468322541564703,
                0.02036328613758087,
                -0.0007717846892774105
            ]
        }
    ],
    "materials" : [
        {
            "doubleSided" : true,
            "emissiveFactor" : [
                0,
                0,
                0
            ],
            "name" : "aiStandardSurface5.001",
            "pbrMetallicRoughness" : {
                "baseColorFactor" : [
                    1,
                    1,
                    1,
                    1
                ],
                "metallicFactor" : 0,
                "roughnessFactor" : 0.5527864098548889
            }
        },
        {
            "doubleSided" : true,
            "emissiveFactor" : [
                0,
                0,
                0
            ],
            "name" : "aiStandardSurface2.001",
            "pbrMetallicRoughness" : {
                "baseColorFactor" : [
                    1,
                    1,
                    1,
                    1
                ],
                "metallicFactor" : 0,
                "roughnessFactor" : 0.5527864098548889
            }
        },
        {
            "doubleSided" : true,
            "emissiveFactor" : [
                0,
                0,
                0
            ],
            "name" : "aiStandardSurface1.001",
            "pbrMetallicRoughness" : {
                "baseColorFactor" : [
                    1,
                    1,
                    1,
                    1
                ],
                "metallicFactor" : 0,
                "roughnessFactor" : 0.5527864098548889
            }
        },
        {
            "doubleSided" : true,
            "emissiveFactor" : [
                0,
                0,
                0
            ],
            "name" : "aiStandardSurface4.001",
            "pbrMetallicRoughness" : {
                "baseColorFactor" : [
                    1,
                    1,
                    1,
                    1
                ],
                "metallicFactor" : 0,
                "roughnessFactor" : 0.5527864098548889
            }
        },
        {
            "doubleSided" : true,
            "emissiveFactor" : [
                0,
                0,
                0
            ],
            "name" : "lambert1.001",
            "pbrMetallicRoughness" : {
                "baseColorFactor" : [
                    0.5,
                    0.5,
                    0.5,
                    1
                ],
                "metallicFactor" : 0,
                "roughnessFactor" : 0.5527864098548889
            }
        }
    ],
    "meshes" : [
        {
            "name" : "\u7f51\u683c.013",
            "primitives" : [
                {
                    "attributes" : {
                        "POSITION" : 0,
                        "NORMAL" : 1,
                        "TEXCOORD_0" : 2
                    },
                    "indices" : 3,
                    "material" : 0
                }
            ]
        },
        {
            "name" : "\u7f51\u683c.008",
            "primitives" : [
                {
                    "attributes" : {
                        "POSITION" : 4,
                        "NORMAL" : 5,
                        "TEXCOORD_0" : 6
                    },
                    "indices" : 7,
                    "material" : 1
                }
            ]
        },
        {
            "name" : "\u7f51\u683c.009",
            "primitives" : [
                {
                    "attributes" : {
                        "POSITION" : 8,
                        "NORMAL" : 9,
                        "TEXCOORD_0" : 10
                    },
                    "indices" : 11,
                    "material" : 2
                }
            ]
        },
        {
            "name" : "\u7f51\u683c.011",
            "primitives" : [
                {
                    "attributes" : {
                        "POSITION" : 12,
                        "NORMAL" : 13,
                        "TEXCOORD_0" : 14
                    },
                    "indices" : 15,
                    "material" : 3
                }
            ]
        },
        {
            "name" : "\u7f51\u683c.010",
            "primitives" : [
                {
                    "attributes" : {
                        "POSITION" : 16,
                        "NORMAL" : 17,
                        "TEXCOORD_0" : 18
                    },
                    "indices" : 19,
                    "material" : 0
                }
            ]
        },
        {
            "name" : "\u7f51\u683c.014",
            "primitives" : [
                {
                    "attributes" : {
                        "POSITION" : 20,
                        "NORMAL" : 21,
                        "TEXCOORD_0" : 22
                    },
                    "indices" : 23,
                    "material" : 0
                }
            ]
        },
        {
            "name" : "\u7f51\u683c.015",
            "primitives" : [
                {
                    "attributes" : {
                        "POSITION" : 24,
                        "NORMAL" : 25,
                        "TEXCOORD_0" : 26
                    },
                    "indices" : 27,
                    "material" : 0
                }
            ]
        },
        {
            "name" : "\u7f51\u683c.012",
            "primitives" : [
                {
                    "attributes" : {
                        "POSITION" : 28,
                        "NORMAL" : 29,
                        "TEXCOORD_0" : 30
                    },
                    "indices" : 15,
                    "material" : 4
                }
            ]
        }
    ],
    "accessors" : [
        {
            "bufferView" : 0,
            "componentType" : 5126,
            "count" : 72,
            "max" : [
                0.22571498155593872,
                -0.0012223876547068357,
                -0.003738170024007559
            ],
            "min" : [
                0.07138004153966904,
                -0.01657368242740631,
                -0.29883837699890137
            ],
            "type" : "VEC3"
        },
        {
            "bufferView" : 1,
            "componentType" : 5126,
            "count" : 72,
            "type" : "VEC3"
        },
        {
            "bufferView" : 2,
            "componentType" : 5126,
            "count" : 72,
            "type" : "VEC2"
        },
        {
            "bufferView" : 3,
            "componentType" : 5123,
            "count" : 108,
            "type" : "SCALAR"
        },
        {
            "bufferView" : 4,
            "componentType" : 5126,
            "count" : 464,
            "max" : [
                0.25219401717185974,
                0.017675915732979774,
                -0.3075317144393921
            ],
            "min" : [
                0.0448133647441864,
                -0.00587542774155736,
                -0.4657426178455353
            ],
            "type" : "VEC3"
        },
        {
            "bufferView" : 5,
            "componentType" : 5126,
            "count" : 464,
            "type" : "VEC3"
        },
        {
            "bufferView" : 6,
            "componentType" : 5126,
            "count" : 464,
            "type" : "VEC2"
        },
        {
            "bufferView" : 7,
            "componentType" : 5123,
            "count" : 1896,
            "type" : "SCALAR"
        },
        {
            "bufferView" : 8,
            "componentType" : 5126,
            "count" : 164,
            "max" : [
                0.22006158530712128,
                0.01597270928323269,
                -0.36952921748161316
            ],
            "min" : [
                0.07694583386182785,
                0.005066727753728628,
                -0.45021185278892517
            ],
            "type" : "VEC3"
        },
        {
            "bufferView" : 9,
            "componentType" : 5126,
            "count" : 164,
            "type" : "VEC3"
        },
        {
            "bufferView" : 10,
            "componentType" : 5126,
            "count" : 164,
            "type" : "VEC2"
        },
        {
            "bufferView" : 11,
            "componentType" : 5123,
            "count" : 576,
            "type" : "SCALAR"
        },
        {
            "bufferView" : 12,
            "componentType" : 5126,
            "count" : 1225,
            "max" : [
                0.22442001104354858,
                0.021216854453086853,
                -0.337593674659729
            ],
            "min" : [
                0.0713924989104271,
                0.003740116022527218,
                -0.34521666169166565
            ],
            "type" : "VEC3"
        },
        {
            "bufferView" : 13,
            "componentType" : 5126,
            "count" : 1225,
            "type" : "VEC3"
        },
        {
            "bufferView" : 14,
            "componentType" : 5126,
            "count" : 1225,
            "type" : "VEC2"
        },
        {
            "bufferView" : 15,
            "componentType" : 5123,
            "count" : 4656,
            "type" : "SCALAR"
        },
        {
            "bufferView" : 16,
            "componentType" : 5126,
            "count" : 3072,
            "max" : [
                0.2862735390663147,
                0.02039949595928192,
                -0.008315777406096458
            ],
            "min" : [
                0.010733897797763348,
                -0.027632489800453186,
                -0.30169570446014404
            ],
            "type" : "VEC3"
        },
        {
            "bufferView" : 17,
            "componentType" : 5126,
            "count" : 3072,
            "type" : "VEC3"
        },
        {
            "bufferView" : 18,
            "componentType" : 5126,
            "count" : 3072,
            "type" : "VEC2"
        },
        {
            "bufferView" : 19,
            "componentType" : 5123,
            "count" : 7680,
            "type" : "SCALAR"
        },
        {
            "bufferView" : 20,
            "componentType" : 5126,
            "count" : 121,
            "max" : [
                0.2871391773223877,
                0.004043605178594589,
                -0.30516698956489563
            ],
            "min" : [
                0.004747301340103149,
                -0.005393717437982559,
                -0.46810734272003174
            ],
            "type" : "VEC3"
        },
        {
            "bufferView" : 21,
            "componentType" : 5126,
            "count" : 121,
            "type" : "VEC3"
        },
        {
            "bufferView" : 22,
            "componentType" : 5126,
            "count" : 121,
            "type" : "VEC2"
        },
        {
            "bufferView" : 23,
            "componentType" : 5123,
            "count" : 276,
            "type" : "SCALAR"
        },
        {
            "bufferView" : 24,
            "componentType" : 5126,
            "count" : 272,
            "max" : [
                0.31090909242630005,
                0.0004693820374086499,
                1.2801028788089752e-06
            ],
            "min" : [
                -0.01662268117070198,
                -0.5501366853713989,
                -0.4903506934642792
            ],
            "type" : "VEC3"
        },
        {
            "bufferView" : 25,
            "componentType" : 5126,
            "count" : 272,
            "type" : "VEC3"
        },
        {
            "bufferView" : 26,
            "componentType" : 5126,
            "count" : 272,
            "type" : "VEC2"
        },
        {
            "bufferView" : 27,
            "componentType" : 5123,
            "count" : 972,
            "type" : "SCALAR"
        },
        {
            "bufferView" : 28,
            "componentType" : 5126,
            "count" : 1225,
            "max" : [
                0.22442001104354858,
                0.021216854453086853,
                -0.337593674659729
            ],
            "min" : [
                0.0713924989104271,
                0.003740116022527218,
                -0.34521666169166565
            ],
            "type" : "VEC3"
        },
        {
            "bufferView" : 29,
            "componentType" : 5126,
            "count" : 1225,
            "type" : "VEC3"
        },
        {
            "bufferView" : 30,
            "componentType" : 5126,
            "count" : 1225,
            "type" : "VEC2"
        }
    ],
    "bufferViews" : [
        {
            "buffer" : 0,
            "byteLength" : 864,
            "byteOffset" : 0
        },
        {
            "buffer" : 0,
            "byteLength" : 864,
            "byteOffset" : 864
        },
        {
            "buffer" : 0,
            "byteLength" : 576,
            "byteOffset" : 1728
        },
        {
            "buffer" : 0,
            "byteLength" : 216,
            "byteOffset" : 2304
        },
        {
            "buffer" : 0,
            "byteLength" : 5568,
            "byteOffset" : 2520
        },
        {
            "buffer" : 0,
            "byteLength" : 5568,
            "byteOffset" : 8088
        },
        {
            "buffer" : 0,
            "byteLength" : 3712,
            "byteOffset" : 13656
        },
        {
            "buffer" : 0,
            "byteLength" : 3792,
            "byteOffset" : 17368
        },
        {
            "buffer" : 0,
            "byteLength" : 1968,
            "byteOffset" : 21160
        },
        {
            "buffer" : 0,
            "byteLength" : 1968,
            "byteOffset" : 23128
        },
        {
            "buffer" : 0,
            "byteLength" : 1312,
            "byteOffset" : 25096
        },
        {
            "buffer" : 0,
            "byteLength" : 1152,
            "byteOffset" : 26408
        },
        {
            "buffer" : 0,
            "byteLength" : 14700,
            "byteOffset" : 27560
        },
        {
            "buffer" : 0,
            "byteLength" : 14700,
            "byteOffset" : 42260
        },
        {
            "buffer" : 0,
            "byteLength" : 9800,
            "byteOffset" : 56960
        },
        {
            "buffer" : 0,
            "byteLength" : 9312,
            "byteOffset" : 66760
        },
        {
            "buffer" : 0,
            "byteLength" : 36864,
            "byteOffset" : 76072
        },
        {
            "buffer" : 0,
            "byteLength" : 36864,
            "byteOffset" : 112936
        },
        {
            "buffer" : 0,
            "byteLength" : 24576,
            "byteOffset" : 149800
        },
        {
            "buffer" : 0,
            "byteLength" : 15360,
            "byteOffset" : 174376
        },
        {
            "buffer" : 0,
            "byteLength" : 1452,
            "byteOffset" : 189736
        },
        {
            "buffer" : 0,
            "byteLength" : 1452,
            "byteOffset" : 191188
        },
        {
            "buffer" : 0,
            "byteLength" : 968,
            "byteOffset" : 192640
        },
        {
            "buffer" : 0,
            "byteLength" : 552,
            "byteOffset" : 193608
        },
        {
            "buffer" : 0,
            "byteLength" : 3264,
            "byteOffset" : 194160
        },
        {
            "buffer" : 0,
            "byteLength" : 3264,
            "byteOffset" : 197424
        },
        {
            "buffer" : 0,
            "byteLength" : 2176,
            "byteOffset" : 200688
        },
        {
            "buffer" : 0,
            "byteLength" : 1944,
            "byteOffset" : 202864
        },
        {
            "buffer" : 0,
            "byteLength" : 14700,
            "byteOffset" : 204808
        },
        {
            "buffer" : 0,
            "byteLength" : 14700,
            "byteOffset" : 219508
        },
        {
            "buffer" : 0,
            "byteLength" : 9800,
            "byteOffset" : 234208
        }
    ],
    "buffers" : [
        {
            "byteLength" : 244008,
            "uri" : "data:application/octet-stream;base64,"
        }
    ]
}
